<svg
   xmlns="http://www.w3.org/2000/svg"
   viewBox="0 0 47.999999 47.999999"
   height="64"
   width="64">
  <defs
      id="defs19">
      <style type="text/css" id="current-color-scheme">
			.ColorScheme-Text {
				color:#4d4d4d;
			}
		</style>
        </defs>
  <g
     transform="matrix(0.56249999,0,0,0.56249999,6.7499999,6.7499999)"
     id="surface1">
    <path
       id="path2"
       d="m 25.921875,35.007812 c 0,-0.519531 -0.417969,-0.9375 -0.9375,-0.9375 H 3.945312 C 2.804688,34.070312 1.875,33.140625 1.875,32 V 3.945312 C 1.875,2.804688 2.804688,1.875 3.945312,1.875 H 32 c 1.140625,0 2.070312,0.929688 2.070312,2.070312 v 21.039063 c 0,0.519531 0.417969,0.9375 0.9375,0.9375 0.515626,0 0.9375,-0.417969 0.9375,-0.9375 V 3.945312 C 35.945312,1.769531 34.175781,0 32,0 H 3.945312 C 1.769531,0 0,1.769531 0,3.945312 V 32 c 0,2.175781 1.769531,3.945312 3.945312,3.945312 h 21.039063 c 0.519531,0 0.9375,-0.421874 0.9375,-0.9375 z m 0,0"
        fill="currentColor"
        stroke="currentColor"
        stroke-width="2"
class="ColorScheme-Text" />
    <path
       id="path4"
       d="m 60.054688,28.054688 h -8.015626 c -0.515624,0 -0.9375,0.421874 -0.9375,0.9375 0,0.519531 0.421876,0.9375 0.9375,0.9375 h 8.015626 c 1.140624,0 2.070312,0.929687 2.070312,2.070312 v 28.054688 c 0,1.140624 -0.929688,2.070312 -2.070312,2.070312 H 32 c -1.140625,0 -2.070312,-0.929688 -2.070312,-2.070312 V 32 c 0,-1.140625 0.929687,-2.070312 2.070312,-2.070312 h 16.03125 c 0.519531,0 0.9375,-0.417969 0.9375,-0.9375 0,-0.515626 -0.417969,-0.9375 -0.9375,-0.9375 H 32 c -2.175781,0 -3.945312,1.769531 -3.945312,3.945312 V 60.054688 C 28.054688,62.230469 29.824219,64 32,64 H 60.054688 C 62.230469,64 64,62.230469 64,60.054688 V 32 c 0,-2.175781 -1.769531,-3.945312 -3.945312,-3.945312 z m 0,0"
        fill="currentColor"
        stroke="currentColor"
        stroke-width="2"
class="ColorScheme-Text" />
    <path
       id="path6"
       d="M 26.988281,10.019531 H 18.910156 V 8.953125 c 0,-0.515625 -0.421875,-0.9375 -0.9375,-0.9375 -0.519531,0 -0.9375,0.421875 -0.9375,0.9375 v 1.066406 H 8.953125 c -0.515625,0 -0.9375,0.421875 -0.9375,0.9375 0,0.519531 0.421875,0.9375 0.9375,0.9375 H 22.757812 C 22.21875,13.628906 20.867188,17.125 17.96875,20.617188 16.195312,18.488281 14.996094,16.347656 14.203125,14.578125 13.992188,14.105469 13.4375,13.894531 12.964844,14.105469 c -0.472656,0.210937 -0.683594,0.765625 -0.472656,1.238281 0.878906,1.957031 2.214843,4.332031 4.210937,6.6875 -1.421875,1.476562 -3.144531,2.90625 -5.226563,4.15625 -0.445312,0.265625 -0.585937,0.839844 -0.320312,1.285156 0.175781,0.292969 0.484375,0.453125 0.804688,0.453125 0.164062,0 0.328124,-0.04297 0.480468,-0.132812 2.207032,-1.324219 4.027344,-2.835938 5.527344,-4.375 1.511719,1.554687 3.335938,3.058593 5.53125,4.375 0.152344,0.08984 0.320312,0.132812 0.484375,0.132812 0.316406,0 0.628906,-0.160156 0.804687,-0.453125 0.265626,-0.445312 0.121094,-1.019531 -0.324218,-1.285156 -2.082032,-1.253906 -3.808594,-2.683594 -5.234375,-4.160156 1.472656,-1.734375 2.554687,-3.4375 3.324219,-4.863282 1.246093,-2.3125 1.878906,-4.253906 2.160156,-5.269531 h 2.273437 c 0.519531,0 0.9375,-0.417969 0.9375,-0.9375 0,-0.515625 -0.417969,-0.9375 -0.9375,-0.9375 z m 0,0"
        fill="currentColor"
        stroke="currentColor"
        stroke-width="2"
class="ColorScheme-Text" />
    <path
       id="path8"
       d="m 47.304688,36.90625 c -0.207032,-0.507812 -0.699219,-0.832031 -1.246094,-0.832031 -0.550782,0 -1.039063,0.328125 -1.246094,0.835937 -0.0039,0.0078 -0.0039,0.01172 -0.0078,0.01953 l -6.773438,17.78125 c -0.183594,0.484374 0.05859,1.027343 0.542969,1.210937 0.109375,0.04297 0.222656,0.0625 0.332031,0.0625 0.378906,0 0.734375,-0.230469 0.878906,-0.605469 L 41.2422,51.554686 h 9.585937 l 1.441406,3.824218 c 0.183594,0.484375 0.726563,0.726563 1.210938,0.542969 0.484375,-0.179687 0.726562,-0.722656 0.542969,-1.207031 L 47.3125,36.933594 c 0,-0.01172 -0.0039,-0.01953 -0.0078,-0.02734 z m -5.347657,12.773438 4.101563,-10.769532 4.0625,10.769532 z m 0,0"
        fill="currentColor"
        stroke="currentColor"
        stroke-width="2"
class="ColorScheme-Text" />
    <path
       id="path10"
       d="m 25.546875,51.289062 -4.007813,-3.003906 c -0.414062,-0.3125 -1,-0.226562 -1.3125,0.1875 -0.308593,0.414063 -0.226562,1 0.1875,1.3125 l 1.757813,1.316406 h -3.199219 c -3.351562,0 -6.074218,-2.726562 -6.074218,-6.074218 v -6.011719 c 0,-0.519531 -0.421876,-0.9375 -0.9375,-0.9375 -0.519532,0 -0.9375,0.417969 -0.9375,0.9375 v 6.011719 c 0,4.382812 3.566406,7.949218 7.949218,7.949218 h 3.199219 l -1.757813,1.320313 c -0.414062,0.308594 -0.496093,0.898437 -0.1875,1.3125 0.1875,0.246094 0.46875,0.375 0.753907,0.375 0.195312,0 0.390625,-0.0625 0.558593,-0.1875 l 4.007813,-3.007813 c 0.238281,-0.175781 0.375,-0.453124 0.375,-0.75 0,-0.292968 -0.136719,-0.570312 -0.375,-0.75 z m 0,0"
        fill="currentColor"
        stroke="currentColor"
        stroke-width="2"
class="ColorScheme-Text" />
    <path
       id="path12"
       d="m 38.453125,12.710938 4.007813,3.003906 c 0.167968,0.128906 0.363281,0.1875 0.558593,0.1875 0.285157,0 0.570313,-0.128906 0.753907,-0.375 0.308593,-0.414063 0.226562,-1 -0.1875,-1.3125 l -1.757813,-1.316406 h 3.199219 c 3.351562,0 6.074218,2.726562 6.074218,6.074218 v 6.011719 c 0,0.519531 0.421876,0.9375 0.9375,0.9375 0.519532,0 0.9375,-0.417969 0.9375,-0.9375 v -6.011719 c 0,-4.382812 -3.566406,-7.949218 -7.949218,-7.949218 H 41.828125 L 43.585938,9.703125 C 44,9.394531 44.082031,8.804688 43.773438,8.390625 43.460938,7.976562 42.875,7.894531 42.460938,8.203125 l -4.007813,3.007813 c -0.238281,0.175781 -0.375,0.453124 -0.375,0.75 0,0.292968 0.136719,0.570312 0.375,0.75 z m 0,0"
        fill="currentColor"
        stroke="currentColor"
        stroke-width="2"
class="ColorScheme-Text" />
  </g>
</svg>
